<?xml version="1.0" encoding="UTF-8" standalone="no"?>
<!-- Created with Inkscape (http://www.inkscape.org/) -->

<svg
   xmlns:dc="http://purl.org/dc/elements/1.1/"
   xmlns:cc="http://creativecommons.org/ns#"
   xmlns:rdf="http://www.w3.org/1999/02/22-rdf-syntax-ns#"
   xmlns:svg="http://www.w3.org/2000/svg"
   xmlns="http://www.w3.org/2000/svg"
   version="1.1"
   width="557.8252"
   height="557.72723"
   id="svg2">
  <defs
     id="defs4" />
  <metadata
     id="metadata7">
    <rdf:RDF>
      <cc:Work
         rdf:about="">
        <dc:format>image/svg+xml</dc:format>
        <dc:type
           rdf:resource="http://purl.org/dc/dcmitype/StillImage" />
        <dc:title></dc:title>
      </cc:Work>
    </rdf:RDF>
  </metadata>
  <g
     transform="translate(-111.22246,-159.29219)"
     id="layer1">
    <path
       d="m 412.97461,717.01944 c -33.82431,-19.08761 -51.33665,-28.11853 -72.09772,-40.44932 45.9069,5.303 112.49781,13.08449 158.39075,18.50637 -24.34863,12.71818 -58.58969,19.06616 -86.29303,21.94295 z m 131.46565,-47.54303 c -64.74663,-12.41232 -131.4733,-25.12525 -195.95157,-38.86002 94.12998,-19.55386 190.49979,-38.08267 284.87645,-56.41074 -8.58803,24.55419 -58.54772,80.69914 -87.15711,95.52331 z M 340.69161,585.40073 c 107.9356,-60.75252 223.0921,-125.16602 326.37981,-183.30966 5.70207,51.59001 -0.86255,102.3621 -20.63823,146.26833 -99.92991,12.29793 -205.7849,24.9486 -305.74158,37.04133 z m -19.68793,-42.82426 c 90.29343,-98.6403 181.31325,-196.61474 271.99631,-294.89741 36.13511,37.29559 60.04524,85.47526 70.6577,136.13971 -113.51842,54.07717 -228.39117,106.02681 -342.65401,158.7577 z m -33.17216,-32.78964 c 47.82293,-113.4671 112.59887,-245.27123 158.46806,-344.71036 50.81978,9.98222 98.88253,35.21459 135.70041,71.66532 -96.55226,90.65005 -197.1212,182.92412 -294.16847,273.04504 z M 153.28087,488.09278 c -14.46163,-24.64719 -28.06078,-49.7916 -42.05841,-74.70489 2.59261,-30.34622 10.18882,-60.46068 22.96933,-88.12271 6.56423,54.25066 13.16948,108.50321 19.08908,162.8276 z m 92.46852,0.48369 C 257.7348,385.71683 269.63857,282.76491 282.433,179.99503 c 37.91348,-15.30109 83.6206,-25.43138 146.44006,-18.4554 -31.0645,55.4984 -149.85834,267.91225 -183.12367,327.03684 z m -45.63512,-7.02411 c -10.32988,-49.31173 -34.37146,-169.74044 -40.79244,-202.11843 25.52588,-35.67239 58.50408,-66.16271 97.31459,-86.85746 -16.72983,88.97638 -39.08111,200.13516 -56.52215,288.97589 z"
       id="path5350"
       style="fill:#da4327;fill-opacity:1" />
  </g>
</svg>
